0
SECTION
2
HEADER
9
$INSUNITS
70
4
9
$ACADVER
1
AC1014
9
$HANDSEED
5
FFFF
0
ENDSEC
0
SECTION
2
TABLES
0
TABLE
2
VPORT
5
8
100
AcDbSymbolTable
0
ENDTAB
0
TABLE
2
LTYPE
5
5
100
AcDbSymbolTable
0
LTYPE
5
14
100
AcDbSymbolTableRecord
100
AcDbLinetypeTableRecord
2
BYBLOCK
70
0
0
LTYPE
5
15
100
AcDbSymbolTableRecord
100
AcDbLinetypeTableRecord
2
BYLAYER
70
0
0
LTYPE
5
16
100
AcDbSymbolTableRecord
100
AcDbLinetypeTableRecord
2
DASHED
70
0
3
Dashed __ __ __ __ __ __ __ __ __ __ __ __ __ _
72
65
73
2
40
0.75
49
0.5
74
0
49
-0.25
74
0
0
ENDTAB
0
TABLE
2
LAYER
5
2
100
AcDbSymbolTable
70
2
0
LAYER
5
50
100
AcDbSymbolTableRecord
100
AcDbLayerTableRecord
2
0
70
0
62
7
6
CONTINUOUS
0
ENDTAB
0
TABLE
2
STYLE
5
3
100
AcDbSymbolTable
70
1
0
STYLE
5
11
100
AcDbSymbolTableRecord
100
AcDbTextStyleTableRecord
2
STANDARD
70
0
0
ENDTAB
0
TABLE
2
VIEW
5
6
100
AcDbSymbolTable
70
0
0
ENDTAB
0
TABLE
2
UCS
5
7
100
AcDbSymbolTable
70
0
0
ENDTAB
0
TABLE
2
APPID
5
9
100
AcDbSymbolTable
70
2
0
APPID
5
12
100
AcDbSymbolTableRecord
100
AcDbRegAppTableRecord
2
ACAD
70
0
0
ENDTAB
0
TABLE
2
DIMSTYLE
5
A
100
AcDbSymbolTable
70
1
0
ENDTAB
0
TABLE
2
BLOCK_RECORD
5
1
100
AcDbSymbolTable
70
1
0
BLOCK_RECORD
5
1F
100
AcDbSymbolTableRecord
100
AcDbBlockTableRecord
2
*MODEL_SPACE
0
BLOCK_RECORD
5
1B
100
AcDbSymbolTableRecord
100
AcDbBlockTableRecord
2
*PAPER_SPACE
0
ENDTAB
0
ENDSEC
0
SECTION
2
BLOCKS
0
BLOCK
5
20
100
AcDbEntity
100
AcDbBlockBegin
2
*MODEL_SPACE
0
ENDBLK
5
21
100
AcDbEntity
100
AcDbBlockEnd
0
BLOCK
5
1C
100
AcDbEntity
100
AcDbBlockBegin
2
*PAPER_SPACE
0
ENDBLK
5
1D
100
AcDbEntity
100
AcDbBlockEnd
0
ENDSEC
0
SECTION
2
ENTITIES
0
LWPOLYLINE
5
100
100
AcDbEntity
8
0
100
AcDbPolyline
90
8
70
1
43
0.0
10
41.125
20
-2.5249999999999999
10
54.125000000000007
20
-2.5250000000000017
42
-0.41421356237309503
10
54.625
20
-3.0249999999999999
10
54.625
20
-16.024999999999999
42
-0.41421356237309503
10
54.125000000000007
20
-16.524999999999999
10
41.125
20
-16.524999999999999
42
-0.41421356237309503
10
40.625
20
-16.024999999999999
10
40.625
20
-3.0249999999999999
42
-0.41421356237309503
0
LWPOLYLINE
5
101
100
AcDbEntity
8
0
100
AcDbPolyline
90
8
70
1
43
0.0
10
22.074999999999999
20
-6.3350000000000009
10
35.075000000000003
20
-6.3349999999999973
42
-0.41421356237309503
10
35.575000000000003
20
-6.835
10
35.575000000000003
20
-19.835000000000001
42
-0.41421356237309503
10
35.075000000000003
20
-20.335000000000001
10
22.074999999999999
20
-20.335000000000001
42
-0.41421356237309503
10
21.575000000000003
20
-19.835000000000001
10
21.575000000000003
20
-6.835
42
-0.41421356237309503
0
LWPOLYLINE
5
102
100
AcDbEntity
8
0
100
AcDbPolyline
90
8
70
1
43
0.0
10
60.174999999999997
20
-6.3350000000000009
10
73.174999999999997
20
-6.3350000000000017
42
-0.41421356237309503
10
73.674999999999997
20
-6.835
10
73.674999999999997
20
-19.835000000000001
42
-0.41421356237309503
10
73.174999999999997
20
-20.335000000000001
10
60.174999999999997
20
-20.335000000000001
42
-0.41421356237309503
10
59.675000000000004
20
-19.835000000000001
10
59.675000000000004
20
-6.835
42
-0.41421356237309503
0
LWPOLYLINE
5
103
100
AcDbEntity
8
0
100
AcDbPolyline
90
8
70
1
43
0.0
10
79.224999999999994
20
-10.145
10
92.224999999999994
20
-10.14500000000001
42
-0.41421356237309503
10
92.724999999999994
20
-10.645
10
92.725000000000009
20
-23.645
42
-0.41421356237309503
10
92.224999999999994
20
-24.145000000000003
10
79.224999999999994
20
-24.145
42
-0.41421356237309503
10
78.724999999999994
20
-23.645
10
78.724999999999994
20
-10.645
42
-0.41421356237309503
0
LWPOLYLINE
5
104
100
AcDbEntity
8
0
100
AcDbPolyline
90
8
70
1
43
0.0
10
3.0249999999999999
20
-13.955000000000002
10
16.024999999999999
20
-13.955000000000002
42
-0.41421356237309503
10
16.524999999999999
20
-14.455
10
16.525000000000002
20
-27.454999999999998
42
-0.41421356237309503
10
16.024999999999999
20
-27.955000000000002
10
3.0249999999999999
20
-27.954999999999998
42
-0.41421356237309503
10
2.5249999999999999
20
-27.454999999999998
10
2.5250000000000017
20
-14.455
42
-0.41421356237309503
0
LWPOLYLINE
5
105
100
AcDbEntity
8
0
100
AcDbPolyline
90
8
70
1
43
0.0
10
41.125
20
-21.575000000000003
10
54.125000000000007
20
-21.575000000000003
42
-0.41421356237309503
10
54.625
20
-22.074999999999999
10
54.625
20
-35.075000000000003
42
-0.41421356237309503
10
54.125000000000007
20
-35.575000000000003
10
41.125
20
-35.575000000000003
42
-0.41421356237309503
10
40.625
20
-35.075000000000003
10
40.625
20
-22.074999999999999
42
-0.41421356237309503
0
LWPOLYLINE
5
106
100
AcDbEntity
8
0
100
AcDbPolyline
90
8
70
1
43
0.0
10
22.074999999999999
20
-25.385000000000005
10
35.075000000000003
20
-25.384999999999998
42
-0.41421356237309503
10
35.575000000000003
20
-25.885000000000002
10
35.575000000000003
20
-38.884999999999998
42
-0.41421356237309503
10
35.075000000000003
20
-39.384999999999998
10
22.074999999999999
20
-39.384999999999998
42
-0.41421356237309503
10
21.575000000000003
20
-38.884999999999998
10
21.575000000000003
20
-25.885000000000002
42
-0.41421356237309503
0
LWPOLYLINE
5
107
100
AcDbEntity
8
0
100
AcDbPolyline
90
8
70
1
43
0.0
10
60.174999999999997
20
-25.385000000000005
10
73.174999999999997
20
-25.385000000000005
42
-0.41421356237309503
10
73.674999999999997
20
-25.885000000000002
10
73.674999999999997
20
-38.884999999999998
42
-0.41421356237309503
10
73.174999999999997
20
-39.384999999999998
10
60.174999999999997
20
-39.384999999999998
42
-0.41421356237309503
10
59.675000000000004
20
-38.884999999999998
10
59.675000000000004
20
-25.885000000000002
42
-0.41421356237309503
0
LWPOLYLINE
5
108
100
AcDbEntity
8
0
100
AcDbPolyline
90
8
70
1
43
0.0
10
79.224999999999994
20
-29.195
10
92.224999999999994
20
-29.195000000000011
42
-0.41421356237309503
10
92.724999999999994
20
-29.695
10
92.725000000000009
20
-42.695
42
-0.41421356237309503
10
92.224999999999994
20
-43.195000000000007
10
79.224999999999994
20
-43.194999999999993
42
-0.41421356237309503
10
78.724999999999994
20
-42.695
10
78.724999999999994
20
-29.695
42
-0.41421356237309503
0
LWPOLYLINE
5
109
100
AcDbEntity
8
0
100
AcDbPolyline
90
8
70
1
43
0.0
10
3.0249999999999999
20
-33.005000000000003
10
16.024999999999999
20
-33.005000000000003
42
-0.41421356237309503
10
16.524999999999999
20
-33.505000000000003
10
16.525000000000006
20
-46.505000000000003
42
-0.41421356237309503
10
16.024999999999999
20
-47.00500000000001
10
3.0249999999999999
20
-47.004999999999995
42
-0.41421356237309503
10
2.5249999999999999
20
-46.505000000000003
10
2.5250000000000017
20
-33.505000000000003
42
-0.41421356237309503
0
LWPOLYLINE
5
110
100
AcDbEntity
8
0
100
AcDbPolyline
90
8
70
1
43
0.0
10
41.125
20
-40.625
10
54.125000000000007
20
-40.625
42
-0.41421356237309503
10
54.625
20
-41.125
10
54.625
20
-54.125000000000007
42
-0.41421356237309503
10
54.125000000000007
20
-54.625
10
41.125
20
-54.625
42
-0.41421356237309503
10
40.625
20
-54.125000000000007
10
40.625
20
-41.125
42
-0.41421356237309503
0
LWPOLYLINE
5
111
100
AcDbEntity
8
0
100
AcDbPolyline
90
8
70
1
43
0.0
10
22.074999999999999
20
-44.435000000000002
10
35.075000000000003
20
-44.435000000000002
42
-0.41421356237309503
10
35.575000000000003
20
-44.935000000000002
10
35.575000000000003
20
-57.935000000000009
42
-0.41421356237309503
10
35.075000000000003
20
-58.435000000000002
10
22.074999999999999
20
-58.435000000000002
42
-0.41421356237309503
10
21.575000000000003
20
-57.935000000000009
10
21.575000000000003
20
-44.935000000000002
42
-0.41421356237309503
0
LWPOLYLINE
5
112
100
AcDbEntity
8
0
100
AcDbPolyline
90
8
70
1
43
0.0
10
60.174999999999997
20
-44.435000000000002
10
73.174999999999997
20
-44.435000000000002
42
-0.41421356237309503
10
73.674999999999997
20
-44.935000000000002
10
73.674999999999997
20
-57.935000000000009
42
-0.41421356237309503
10
73.174999999999997
20
-58.435000000000002
10
60.174999999999997
20
-58.435000000000002
42
-0.41421356237309503
10
59.675000000000004
20
-57.935000000000009
10
59.675000000000004
20
-44.935000000000002
42
-0.41421356237309503
0
LWPOLYLINE
5
113
100
AcDbEntity
8
0
100
AcDbPolyline
90
8
70
1
43
0.0
10
79.224999999999994
20
-48.245000000000005
10
92.224999999999994
20
-48.245000000000012
42
-0.41421356237309503
10
92.724999999999994
20
-48.745000000000005
10
92.725000000000009
20
-61.745000000000005
42
-0.41421356237309503
10
92.224999999999994
20
-62.244999999999997
10
79.224999999999994
20
-62.244999999999997
42
-0.41421356237309503
10
78.724999999999994
20
-61.745000000000005
10
78.724999999999994
20
-48.745000000000005
42
-0.41421356237309503
0
LWPOLYLINE
5
114
100
AcDbEntity
8
0
100
AcDbPolyline
90
8
70
1
43
0.0
10
3.0249999999999999
20
-52.055000000000007
10
16.024999999999999
20
-52.055000000000007
42
-0.41421356237309503
10
16.524999999999999
20
-52.555000000000007
10
16.524999999999999
20
-65.555000000000007
42
-0.41421356237309503
10
16.024999999999999
20
-66.055000000000007
10
3.0249999999999999
20
-66.055000000000007
42
-0.41421356237309503
10
2.5249999999999999
20
-65.555000000000007
10
2.5250000000000017
20
-52.555000000000007
42
-0.41421356237309503
0
LWPOLYLINE
5
115
100
AcDbEntity
8
0
100
AcDbPolyline
90
8
70
1
43
0.0
10
35.409999999999997
20
-63.485000000000007
10
48.410000000000004
20
-63.485000000000007
42
-0.41421356237309503
10
48.909999999999997
20
-63.984999999999999
10
48.909999999999997
20
-76.984999999999999
42
-0.41421356237309503
10
48.410000000000004
20
-77.484999999999999
10
35.409999999999997
20
-77.484999999999999
42
-0.41421356237309503
10
34.909999999999997
20
-76.984999999999999
10
34.910000000000004
20
-63.984999999999999
42
-0.41421356237309503
0
LWPOLYLINE
5
116
100
AcDbEntity
8
0
100
AcDbPolyline
90
8
70
1
43
0.0
10
59.103862300000003
20
-65.3144384
10
71.660898099999997
20
-68.679085999999984
42
-0.41421356237308737
10
72.014451500000007
20
-69.29145840000001
10
68.649803899999995
20
-81.848494200000005
42
-0.41421356237310913
10
68.037431499999997
20
-82.2020476
10
55.480395700000003
20
-78.837400000000017
42
-0.4142135623730937
10
55.126842299999993
20
-78.22502759999999
10
58.491489899999998
20
-65.66799180000001
42
-0.41421356237310641
0
LWPOLYLINE
5
117
100
AcDbEntity
8
0
100
AcDbPolyline
90
8
70
1
43
0.0
10
81.385551000000021
20
-73.268362300000007
10
92.64388120000001
20
-79.768362300000021
42
-0.4142135623730977
10
92.826893900000002
20
-80.451375000000013
10
86.326893899999988
20
-91.709705199999988
42
-0.41421356237309126
10
85.643881200000024
20
-91.892717899999994
10
74.385550999999992
20
-85.392717900000022
42
-0.4142135623730917
10
74.202538299999986
20
-84.709705200000002
10
80.702538300000001
20
-73.451375000000013
42
-0.41421356237310542
0
LWPOLYLINE
5
118
100
AcDbEntity
8
0
100
AcDbPolyline
90
10
70
1
43
0.0
10
-0.47500000000000014
20
-14.110977002294582
10
-0.47500000000000042
20
-66.036773433804086
42
0.30766904273300338
10
0.78894709273473851
20
-67.896404073933041
10
31.986941314387373
20
-80.244756403780713
42
0.11616107324493768
10
38.791049372868549
20
-81.242495168065801
42
-0.17991890997867069
10
79.862906324209206
20
-92.624643656104979
42
0.61213161413339678
10
95.724999999999994
20
-84.523047656781529
10
95.724999999999994
20
-10.40987132602659
42
0.29137928857405182
10
94.570865539678707
20
-8.597549199917669
42
0.24302152877341662
10
0.53658920652449582
20
-12.37228666087632
42
0.26973941506024862
0
CIRCLE
5
119
100
AcDbEntity
8
0
100
AcDbCircle
10
18.925000000000001
20
-30.504999999999999
30
0
40
1.099999999999999
210
0
220
0
230
1
0
CIRCLE
5
120
100
AcDbEntity
8
0
100
AcDbCircle
10
18.925000000000001
20
-49.555000000000007
30
0
40
1.099999999999999
210
0
220
0
230
1
0
CIRCLE
5
121
100
AcDbEntity
8
0
100
AcDbCircle
10
76.325000000000003
20
-26.645000000000003
30
0
40
1.099999999999999
210
0
220
0
230
1
0
CIRCLE
5
122
100
AcDbEntity
8
0
100
AcDbCircle
10
76.324999999999989
20
-43.695000000000007
30
0
40
1.099999999999999
210
0
220
0
230
1
0
CIRCLE
5
123
100
AcDbEntity
8
0
100
AcDbCircle
10
54.625
20
-62.625
30
0
40
1.099999999999999
210
0
220
0
230
1
0
ENDSEC
0
SECTION
2
OBJECTS
0
DICTIONARY
5
C
100
AcDbDictionary
3
ACAD_GROUP
350
D
3
ACAD_MLINESTYLE
350
17
0
DICTIONARY
5
D
100
AcDbDictionary
0
DICTIONARY
5
1A
330
C
100
AcDbDictionary
0
DICTIONARY
5
17
100
AcDbDictionary
0
ENDSEC
0
EOF
